<?xml version="1.0" encoding="UTF-8" standalone="no"?><!DOCTYPE svg PUBLIC "-//W3C//DTD SVG 1.1//EN" "http://www.w3.org/Graphics/SVG/1.1/DTD/svg11.dtd"><svg width="100%" height="100%" viewBox="0 0 3417 1313" version="1.1" xmlns="http://www.w3.org/2000/svg" xmlns:xlink="http://www.w3.org/1999/xlink" xml:space="preserve" xmlns:serif="http://www.serif.com/" style="fill-rule:evenodd;clip-rule:evenodd;stroke-linejoin:round;stroke-miterlimit:2;"><g id="Camada-1" serif:id="Camada 1"><path d="M331.208,278.08l-3.327,3.355l0,183.506l3.327,3.355l501.251,0l0,232.328l-6.626,-3.355l-167.176,-167.176l-263.406,0l-67.369,67.369l0,382.62l54.339,54.339l344.333,0l43.804,-51.844l0,-72.083l125.036,123.927l123.927,0l3.327,-3.355l0,-642.616l-124.453,-110.37l-566.985,0Zm186.86,442.227l63.239,0l0,0.277l75.132,35.182l47.685,88.44l-186.056,0l0,-123.899Z" style="fill:#f36d39;fill-rule:nonzero;"/><text x="1063.282px" y="980.978px" style="font-family:'Gadugi-Bold', 'Gadugi', sans-serif;font-weight:700;font-size:1150.598px;fill:#231f20;">n<tspan x="1684.582px 2313.186px " y="980.978px 980.978px ">ow</tspan></text></g></svg>